{"accessors" : [{"bufferView" : 0, "byteOffset" : 0, "componentType" : 5125, "count" : 90756, "type" : "SCALAR", "max" : [90147], "min" : [0]}, {"bufferView" : 1, "byteOffset" : 0, "componentType" : 5126, "count" : 90148, "type" : "VEC3", "max" : [15.178000450134277, 15.178000450134277, 26.334001541137695], "min" : [-15.180000305175781, -15.180000305175781, -89.4780044555664], "name" : "POSITION"}, {"bufferView" : 1, "byteOffset" : 12, "componentType" : 5126, "count" : 90148, "type" : "VEC3", "max" : [1.0000044107437134, 1.0000044107437134, 1.0000044107437134], "min" : [-1.0000044107437134, -1.0000044107437134, -1.0000044107437134], "name" : "NORMAL"}], "asset" : {"generator" : "Aspose.3D 22.1", "version" : "2.0"}, "buffers" : [{"uri" : "data:application/octet-stream;base64,", "byteLength" : 2541176}], "bufferViews" : [{"buffer" : 0, "byteOffset" : 0, "byteLength" : 363024, "target" : 34963}, {"buffer" : 0, "byteOffset" : 363028, "byteLength" : 2178144, "byteStride" : 24, "target" : 34962}], "meshes" : [{"primitives" : [{"attributes" : {"POSITION" : 1, "NORMAL" : 2}, "indices" : 0, "mode" : 4}], "name" : ""}], "nodes" : [{"mesh" : 0, "name" : "obj_25928203"}], "scene" : 0, "scenes" : [{"nodes" : [0]}]}