{"accessors" : [{"bufferView" : 0, "byteOffset" : 0, "componentType" : 5123, "count" : 660, "type" : "SCALAR", "max" : [601], "min" : [0]}, {"bufferView" : 1, "byteOffset" : 0, "componentType" : 5126, "count" : 602, "type" : "VEC3", "max" : [0.048887576907873154, 0.028438007459044456, 0.12411320954561234], "min" : [-0.09146440774202347, -0.058482877910137177, -0.09592428803443909], "name" : "POSITION"}, {"bufferView" : 1, "byteOffset" : 12, "componentType" : 5126, "count" : 602, "type" : "VEC3", "max" : [0.9998688101768494, 0.999866247177124, 0.9999937415122986], "min" : [-0.9998688101768494, -0.999866247177124, -0.9932639002799988], "name" : "NORMAL"}], "asset" : {"generator" : "Aspose.3D 22.1", "version" : "2.0"}, "buffers" : [{"uri" : "data:application/octet-stream;base64,", "byteLength" : 17168}], "bufferViews" : [{"buffer" : 0, "byteOffset" : 0, "byteLength" : 1320, "target" : 34963}, {"buffer" : 0, "byteOffset" : 1324, "byteLength" : 15840, "byteStride" : 24, "target" : 34962}], "materials" : [{"name" : "Material.001", "pbrMetallicRoughness" : {"baseColorFactor" : [0.800000011920929, 0.800000011920929, 0.800000011920929, 1], "metallicFactor" : 0.20000000298023224, "roughnessFactor" : 0.8500000238418579}, "emissiveFactor" : [0, 0, 0], "alphaMode" : "OPAQUE", "doubleSided" : true}], "meshes" : [{"primitives" : [{"attributes" : {"POSITION" : 1, "NORMAL" : 2}, "indices" : 0, "material" : 0, "mode" : 4}]}], "nodes" : [{"mesh" : 0, "name" : "Hand"}, {"children" : [0], "matrix" : [-1, 0, 0, 0, 0, 1, 0, 0, 0, 0, 1, 0, 0, 0, 0, 1], "name" : "Armature"}], "scene" : 0, "scenes" : [{"nodes" : [1]}]}