{"accessors" : [{"bufferView" : 0, "byteOffset" : 0, "componentType" : 5123, "count" : 72, "type" : "SCALAR", "max" : [71], "min" : [0]}, {"bufferView" : 1, "byteOffset" : 0, "componentType" : 5126, "count" : 72, "type" : "VEC3", "max" : [9.038748015289945E+32, 1.7176655491887707E+37, 3.970194147584177E+27], "min" : [-4.263614495406117E+30, -1.2090570606016065E+32, -9.799339922851932E+32], "name" : "POSITION"}, {"bufferView" : 1, "byteOffset" : 12, "componentType" : 5126, "count" : 72, "type" : "VEC3", "max" : [1.0000042915344238, 1.0000042915344238, 1.0000042915344238], "min" : [-1.0000044107437134, -1.0000042915344238, -1.0000042915344238], "name" : "NORMAL"}], "asset" : {"generator" : "Aspose.3D 22.1", "version" : "2.0"}, "buffers" : [{"uri" : "data:application/octet-stream;base64,", "byteLength" : 1880}], "bufferViews" : [{"buffer" : 0, "byteOffset" : 0, "byteLength" : 144, "target" : 34963}, {"buffer" : 0, "byteOffset" : 148, "byteLength" : 1728, "byteStride" : 24, "target" : 34962}], "meshes" : [{"primitives" : [{"attributes" : {"POSITION" : 1, "NORMAL" : 2}, "indices" : 0, "mode" : 4}], "name" : ""}], "nodes" : [{"mesh" : 0, "name" : ""}], "scene" : 0, "scenes" : [{"nodes" : [0]}]}